<svg xmlns="http://www.w3.org/2000/svg" viewBox="0 0 24 24" role="img" aria-label="Apple">
  <path
    fill="#0f172a"
    d="M14.92 2.5c.63-.77 1.06-1.85.94-2.92-.91.04-2.01.61-2.66 1.38-.58.67-1.08 1.76-.95 2.8 1 .08 2.04-.53 2.67-1.26z"
  />
  <path
    fill="#0f172a"
    d="M18.71 13.45c-.05-2.29 1.87-3.39 1.95-3.44-1.07-1.56-2.73-1.77-3.32-1.79-1.41-.14-2.76.82-3.47.82-.71 0-1.8-.8-2.96-.78-1.52.02-2.93.88-3.71 2.24-1.58 2.73-.4 6.78 1.13 9 .75 1.08 1.64 2.3 2.81 2.26 1.13-.05 1.56-.72 2.93-.72 1.37 0 1.75.72 2.95.7 1.22-.02 1.99-1.1 2.73-2.19.86-1.25 1.22-2.46 1.24-2.52-.03-.01-2.38-.91-2.4-3.58z"
  />
</svg>
