<svg xmlns="http://www.w3.org/2000/svg" viewBox="0 0 48 48" role="img" aria-label="Google">
  <path
    fill="#EA4335"
    d="M24 9.5c3.54 0 6.47 1.3 8.88 3.45l6.6-6.6C35.48 2.7 30.2 0 24 0 14.62 0 6.51 5.38 2.56 13.22l7.64 5.93C12.1 13.17 17.6 9.5 24 9.5z"
  />
  <path
    fill="#4285F4"
    d="M46.5 24c0-1.64-.15-3.21-.43-4.73H24v9.45h12.63c-.55 2.97-2.21 5.49-4.7 7.19l7.2 5.57C43.5 37.3 46.5 31.2 46.5 24z"
  />
  <path
    fill="#FBBC05"
    d="M10.2 28.85a14.5 14.5 0 0 1-.76-4.6c0-1.6.27-3.15.76-4.6l-7.64-5.93A23.97 23.97 0 0 0 0 24c0 3.87.93 7.52 2.56 10.78l7.64-5.93z"
  />
  <path
    fill="#34A853"
    d="M24 48c6.2 0 11.4-2.05 15.2-5.52l-7.2-5.57c-2 1.35-4.58 2.16-8 2.16-6.4 0-11.9-3.67-13.8-8.64l-7.64 5.93C6.5 42.62 14.62 48 24 48z"
  />
</svg>
